<?xml version="1.0" encoding="iso-8859-1"?>
<!-- Generator: Adobe Illustrator 17.1.0, SVG Export Plug-In . SVG Version: 6.00 Build 0)  -->
<!DOCTYPE svg PUBLIC "-//W3C//DTD SVG 1.1//EN" "http://www.w3.org/Graphics/SVG/1.1/DTD/svg11.dtd">
<svg version="1.1" id="Capa_1" xmlns="http://www.w3.org/2000/svg" xmlns:xlink="http://www.w3.org/1999/xlink" x="0px" y="0px"
	 viewBox="0 0 387.781 387.781" style="enable-background:new 0 0 387.781 387.781;" xml:space="preserve">
<path d="M292.454,69.085c-0.335-18.165-26.575-37.574-37.897-45.109C237.153,12.394,212.088,0.013,193.934,0
	c-0.01,0-0.019,0-0.029,0c-18.198,0-43.353,12.371-60.831,23.952c-11.41,7.561-37.893,27.069-38.083,45.287
	c-0.24,4.577-2.825,67.247,32.346,104.5c1.592,1.686,3.252,3.267,4.947,4.794v9.065c0,27.474,8.077,74.596,20.577,120.051
	c6.004,21.833,12.32,40.521,18.266,54.043c8.041,18.287,14.75,26.089,22.434,26.089c7.723,0,14.49-7.806,22.625-26.101
	c6.027-13.554,12.43-32.279,18.516-54.153c12.68-45.573,20.873-92.852,20.873-120.448v-9.003
	C298.122,140.475,293.001,74.891,292.454,69.085z M223.318,299.888c-13.148,48.478-24.82,70.839-29.736,74.576
	c-4.867-3.789-16.392-26.168-29.342-74.511c-11.439-42.701-18.854-86.488-18.953-111.832c13.712,8.114,29.914,12.225,48.435,12.225
	c9.551,0,18.668-1.168,27.097-3.474c3.463-0.947,5.502-4.521,4.556-7.984c-0.947-3.462-4.522-5.502-7.984-4.555
	c-5.397,1.476-11.151,2.411-17.168,2.801V150.87c0-3.59-2.91-6.5-6.5-6.5s-6.5,2.91-6.5,6.5v36.256
	c-17.041-1.057-31.539-6.331-43.273-15.735c-0.594-0.78-1.359-1.42-2.241-1.866c-1.686-1.473-3.321-3.021-4.884-4.674
	c-31.895-33.734-28.88-94.438-28.846-95.042c0.007-0.125,0.011-0.249,0.011-0.374c0-6.39,10.097-19.957,32.266-34.646
	C159.927,21.754,181.483,13,193.905,13c0.006,0,0.013,0,0.019,0c12.38,0.009,33.853,8.769,53.43,21.798
	c22.057,14.679,32.103,28.245,32.103,34.638c0,0.223,0.011,0.445,0.034,0.667c0.068,0.66,6.323,66.363-34.66,100.06
	c-1.902,1.564-2.687,3.982-2.257,6.242v10.675C242.574,212.477,235.016,256.757,223.318,299.888z"/>
<g>
</g>
<g>
</g>
<g>
</g>
<g>
</g>
<g>
</g>
<g>
</g>
<g>
</g>
<g>
</g>
<g>
</g>
<g>
</g>
<g>
</g>
<g>
</g>
<g>
</g>
<g>
</g>
<g>
</g>
</svg>
