<?xml version="1.0" encoding="iso-8859-1"?>
<!-- Generator: Adobe Illustrator 17.1.0, SVG Export Plug-In . SVG Version: 6.00 Build 0)  -->
<!DOCTYPE svg PUBLIC "-//W3C//DTD SVG 1.1//EN" "http://www.w3.org/Graphics/SVG/1.1/DTD/svg11.dtd">
<svg version="1.1" id="Capa_1" xmlns="http://www.w3.org/2000/svg" xmlns:xlink="http://www.w3.org/1999/xlink" x="0px" y="0px"
	 viewBox="0 0 408.434 408.434" style="enable-background:new 0 0 408.434 408.434;" xml:space="preserve">
<path d="M360.881,79.422C359.738,35.55,323.181,0,279.301,0c-0.121,0-0.248,0-0.369,0.001l-1.048,0.005
	c-17.821,0.078-34.245,9.442-43.936,25.05c-6.436,10.365-17.55,16.552-29.732,16.552s-23.296-6.188-29.732-16.552
	c-9.69-15.607-26.115-24.971-43.934-25.05l-1.054-0.005C129.374,0,129.252,0,129.129,0C85.256,0,48.696,35.553,47.552,79.422
	c-0.236,9.035,0.995,17.949,3.674,26.537l29.298,91.575c0.001,0.004,0.003,0.008,0.005,0.012c0.096,0.299,0.22,0.587,0.358,0.869
	c0.029,0.059,0.057,0.119,0.088,0.177c0.137,0.258,0.29,0.507,0.461,0.746c0.04,0.055,0.082,0.108,0.123,0.162
	c0.17,0.223,0.352,0.437,0.552,0.638c0.016,0.016,0.03,0.034,0.047,0.05c0.212,0.208,0.444,0.399,0.686,0.579
	c0.052,0.038,0.103,0.076,0.156,0.112c0.242,0.168,0.493,0.326,0.762,0.462c0.031,0.016,0.064,0.028,0.096,0.043
	c0.159,0.077,0.319,0.154,0.486,0.219c1.354,0.531,22.069,8.536,53.613,14.446v32.112c-2.632,0.264-4.947,2.124-5.647,4.834
	c-0.898,3.476,1.19,7.021,4.666,7.92c0.327,0.084,0.654,0.163,0.981,0.246v24.392c-2.633,0.264-4.946,2.124-5.647,4.835
	c-0.898,3.476,1.19,7.021,4.666,7.92c0.327,0.084,0.654,0.163,0.981,0.246v24.392c-2.632,0.264-4.947,2.124-5.647,4.834
	c-0.898,3.476,1.19,7.021,4.666,7.92c0.327,0.084,0.654,0.163,0.981,0.246v29.877c-0.067,1.029,0.114,2.032,0.501,2.943
	c0.037,0.089,0.074,0.176,0.114,0.263c0.056,0.118,0.12,0.233,0.183,0.347c0.06,0.111,0.11,0.227,0.176,0.335l19.269,31.093
	c0.923,1.491,2.411,2.545,4.123,2.923c14.138,3.123,28.231,4.706,41.889,4.706c13.537,0,27.625-1.596,41.875-4.745
	c1.713-0.378,3.2-1.433,4.124-2.924l19.268-31.112c0.637-1.028,0.974-2.213,0.974-3.422v-30.357
	c0.327-0.083,0.654-0.161,0.981-0.246c3.476-0.899,5.564-4.445,4.666-7.92c-0.701-2.711-3.015-4.571-5.647-4.834V298.48
	c0.327-0.083,0.654-0.161,0.981-0.246c3.476-0.899,5.564-4.445,4.666-7.92c-0.701-2.71-3.015-4.57-5.647-4.834v-24.391
	c0.327-0.083,0.654-0.162,0.982-0.246c3.475-0.899,5.564-4.445,4.665-7.921c-0.702-2.711-3.014-4.571-5.647-4.834v-32.032
	c31.56-5.911,52.288-13.921,53.642-14.452c0.009-0.003,0.016-0.008,0.025-0.011c0.088-0.035,0.173-0.078,0.259-0.117
	c0.479-0.214,0.922-0.477,1.32-0.786c0.017-0.013,0.035-0.024,0.051-0.037c0.123-0.097,0.238-0.201,0.353-0.306
	c0.042-0.039,0.088-0.074,0.129-0.114c0.091-0.088,0.174-0.181,0.26-0.274c0.06-0.065,0.123-0.126,0.18-0.194
	c0.063-0.075,0.12-0.154,0.18-0.232c0.071-0.091,0.144-0.18,0.21-0.276c0.043-0.062,0.079-0.127,0.12-0.191
	c0.074-0.115,0.149-0.229,0.216-0.349c0.029-0.053,0.053-0.109,0.081-0.162c0.099-0.189,0.188-0.385,0.269-0.586
	c0.055-0.136,0.11-0.273,0.156-0.413c0.003-0.008,0.006-0.015,0.008-0.022l29.312-91.619
	C359.886,97.371,361.117,88.458,360.881,79.422z M257.45,364.38l-16.836,27.185c-12.416,2.568-24.649,3.869-36.404,3.869
	c-11.862,0-24.101-1.288-36.42-3.831l-9.868-15.924c15.632,2.819,31.147,4.247,46.292,4.247c6.983,0,14.186-0.32,21.406-0.952
	c3.576-0.313,6.222-3.465,5.909-7.042c-0.313-3.576-3.466-6.229-7.041-5.909c-6.846,0.598-13.667,0.902-20.274,0.902
	c-17.356,0-35.249-2-53.259-5.901v-22.08c17.986,3.714,35.845,5.599,53.26,5.599c17.286,0,35.137-1.907,53.235-5.664V364.38z
	 M257.45,325.589c-18.136,3.949-35.998,5.955-53.235,5.955c-17.378,0-35.248-1.982-53.26-5.887v-24.104
	c17.986,3.714,35.845,5.599,53.26,5.599c17.286,0,35.137-1.907,53.235-5.664V325.589z M257.45,288.197
	c-18.136,3.949-35.998,5.955-53.235,5.955c-17.378,0-35.248-1.982-53.26-5.887v-24.104c17.986,3.714,35.845,5.599,53.26,5.599
	c17.287,0,35.139-1.906,53.235-5.664V288.197z M257.45,250.805c-18.135,3.95-35.997,5.955-53.235,5.955
	c-17.378,0-35.248-1.982-53.26-5.887v-32.621c15.939,2.417,33.977,4.11,53.262,4.11c19.274,0,37.301-1.69,53.233-4.105V250.805z
	 M344.826,101.999l-28.328,88.541c-6.425,2.265-23.314,7.803-46.478,12.29l14.193-36.014c1.316-3.34-0.324-7.114-3.664-8.431
	c-3.344-1.316-7.115,0.324-8.431,3.664l-17.091,43.368c-15.299,2.319-32.533,3.944-50.81,3.944c-18.656,0-36.226-1.693-51.76-4.088
	l-17.034-43.224c-1.316-3.339-5.089-4.979-8.431-3.664c-3.34,1.316-4.98,5.091-3.664,8.431l14.119,35.826
	c-22.671-4.453-39.178-9.869-45.511-12.102l-28.314-88.496c-2.239-7.179-3.273-14.676-3.075-22.283
	C61.509,42.883,92.242,13,129.125,13c0.102,0,0.208,0,0.31,0.001l1.058,0.005c13.316,0.058,25.633,7.126,32.948,18.907
	c8.824,14.211,24.067,22.695,40.776,22.695s31.952-8.484,40.776-22.695c7.315-11.781,19.632-18.849,32.95-18.907l1.052-0.005
	c0.104,0,0.206-0.001,0.31-0.001c36.884,0,67.619,29.885,68.581,66.761C348.084,87.368,347.05,94.865,344.826,101.999z"/>
<g>
</g>
<g>
</g>
<g>
</g>
<g>
</g>
<g>
</g>
<g>
</g>
<g>
</g>
<g>
</g>
<g>
</g>
<g>
</g>
<g>
</g>
<g>
</g>
<g>
</g>
<g>
</g>
<g>
</g>
</svg>
