<?xml version="1.0" encoding="iso-8859-1"?>
<!-- Generator: Adobe Illustrator 17.1.0, SVG Export Plug-In . SVG Version: 6.00 Build 0)  -->
<!DOCTYPE svg PUBLIC "-//W3C//DTD SVG 1.1//EN" "http://www.w3.org/Graphics/SVG/1.1/DTD/svg11.dtd">
<svg version="1.1" id="Capa_1" xmlns="http://www.w3.org/2000/svg" xmlns:xlink="http://www.w3.org/1999/xlink" x="0px" y="0px"
	 viewBox="0 0 328.779 328.779" style="enable-background:new 0 0 328.779 328.779;" xml:space="preserve">
<path d="M273.038,32.634c0.052-0.317,0.085-0.641,0.09-0.972c0-0.017,0.004-0.033,0.005-0.05l0.158-25.071
	c0.011-1.731-0.669-3.395-1.889-4.623C270.18,0.69,268.521,0,266.79,0H61.99c-1.731,0-3.391,0.69-4.611,1.918
	c-1.22,1.229-1.9,2.892-1.889,4.623l0.158,25.071c0,0.017,0.004,0.033,0.005,0.05c0.005,0.331,0.037,0.655,0.09,0.972
	c0.007,0.043,0.012,0.086,0.02,0.129c0.061,0.331,0.15,0.651,0.259,0.962c0.008,0.022,0.01,0.045,0.018,0.067l20.42,56.165
	c-3.796,3.363-6.206,8.258-6.206,13.717v1.918c0,5.207,2.191,9.904,5.687,13.246c-2.353,3.199-3.762,7.134-3.762,11.401
	c0,6.426,3.168,12.112,8.011,15.623c-1.662,2.812-2.634,6.078-2.634,9.575v0.816c0,5.815,2.644,11.02,6.788,14.489
	c-2.053,3.067-3.255,6.749-3.255,10.708c0,4.911,1.859,9.385,4.89,12.795c-3.149,3.527-4.89,8.022-4.89,12.805
	c0,5.799,2.58,10.995,6.638,14.538c-2.27,3.224-3.508,7.05-3.508,11.073c0,4.91,1.86,9.384,4.892,12.794
	c-3.151,3.535-4.892,8.035-4.892,12.816c0,5.515,2.339,10.484,6.063,14.005c-2.514,3.323-3.894,7.345-3.894,11.596
	c0,4.911,1.859,9.385,4.891,12.795c-3.15,3.536-4.891,8.035-4.891,12.814c0,10.642,8.658,19.3,19.3,19.3h117.4
	c5.17,0,10.02-2.012,13.646-5.653c3.646-3.646,5.654-8.492,5.654-13.646c0-4.914-1.859-9.391-4.891-12.802
	c3.15-3.529,4.891-8.025,4.891-12.807c0-4.347-1.462-8.35-3.896-11.58c0.132-0.125,0.273-0.235,0.402-0.364
	c3.653-3.636,5.665-8.485,5.665-13.656c0-4.913-1.86-9.39-4.893-12.802c3.152-3.537,4.893-8.033,4.893-12.808
	c0-4.114-1.305-7.923-3.508-11.059c0.333-0.292,0.668-0.579,0.983-0.896c3.646-3.645,5.655-8.494,5.655-13.656
	c0-4.913-1.861-9.389-4.895-12.8c3.034-3.411,4.895-7.887,4.895-12.801c0-3.959-1.202-7.642-3.255-10.708
	c4.144-3.469,6.788-8.674,6.788-14.489v-0.816c0-3.497-0.972-6.763-2.634-9.575c4.843-3.51,8.011-9.197,8.011-15.623
	c0-4.267-1.409-8.202-3.762-11.401c3.496-3.342,5.687-8.038,5.687-13.246v-1.918c0-5.458-2.41-10.354-6.206-13.717l20.42-56.165
	c0.008-0.022,0.01-0.045,0.018-0.067c0.109-0.311,0.198-0.632,0.259-0.962C273.026,32.72,273.03,32.677,273.038,32.634z M260.249,13
	l-0.076,12.071H68.607L68.531,13H260.249z M245.526,103.674v1.918c0,2.946-2.397,5.344-5.344,5.344h-2.884H91.481h-2.884
	c-2.947,0-5.344-2.397-5.344-5.344v-1.918c0-2.946,2.397-5.344,5.344-5.344h151.585C243.129,98.33,245.526,100.728,245.526,103.674z
	 M237.298,136.541h-4.969H96.451h-4.969c-3.475,0-6.303-2.827-6.303-6.303s2.828-6.303,6.303-6.303h145.816
	c3.475,0,6.303,2.827,6.303,6.303S240.773,136.541,237.298,136.541z M238.223,155.436v0.816c0,3.25-2.644,5.895-5.895,5.895h-3.942
	H100.393h-3.942c-3.25,0-5.895-2.645-5.895-5.895v-0.816c0-3.25,2.644-5.895,5.895-5.895h135.878
	C235.579,149.541,238.223,152.186,238.223,155.436z M228.407,187.751c-0.006,0-0.012-0.001-0.018-0.001h-23.33H100.39
	c-0.006,0-0.012,0.001-0.018,0.001c-3.465-0.012-6.282-2.833-6.282-6.302c0-3.476,2.828-6.303,6.303-6.303h127.994
	c3.475,0,6.303,2.827,6.303,6.303C234.689,184.918,231.873,187.74,228.407,187.751z M234.689,207.05
	c0,1.688-0.655,3.273-1.857,4.474c-1.178,1.184-2.756,1.836-4.443,1.836h-3.14H210.59l0.645-12.607h17.151
	c0.007,0,0.014-0.001,0.021-0.001C231.873,200.761,234.689,203.582,234.689,207.05z M229.714,237.113
	c-1.191,1.19-2.776,1.847-4.464,1.847h-15.969l0.645-12.601h15.324c3.479,0,6.31,2.826,6.31,6.301
	C231.56,234.342,230.904,235.923,229.714,237.113z M231.56,258.27c0,1.687-0.652,3.265-1.847,4.454
	c-1.19,1.19-2.775,1.846-4.463,1.846h-2.16h-15.119l0.645-12.609h16.634C228.729,251.96,231.56,254.79,231.56,258.27z
	 M227.534,288.333c-1.18,1.185-2.758,1.837-4.444,1.837h-16.429l0.645-12.601h15.784c3.474,0,6.3,2.826,6.3,6.301
	C229.39,285.557,228.737,287.135,227.534,288.333z M99.39,283.87c0-1.687,0.652-3.266,1.855-4.464
	c1.18-1.185,2.758-1.837,4.444-1.837h18.07v12.601h-18.07C102.216,290.17,99.39,287.344,99.39,283.87z M103.53,264.569
	c-3.479,0-6.31-2.826-6.31-6.3c0-1.688,0.655-3.273,1.847-4.464c1.19-1.19,2.775-1.846,4.463-1.846h20.23v12.609h-18.07H103.53z
	 M97.22,232.66c0-1.682,0.656-3.264,1.846-4.454c1.191-1.19,2.776-1.847,4.464-1.847h20.23v12.601h-20.23
	C100.05,238.96,97.22,236.134,97.22,232.66z M129.122,213.359H103.53h-3.14c-3.474,0-6.3-2.83-6.3-6.31
	c0-1.687,0.652-3.265,1.857-4.464c1.174-1.179,2.744-1.83,4.425-1.835c0.007,0,0.014,0.001,0.021,0.001h65.581L129.122,213.359z
	 M88.609,85.33l-2.888-7.943H215.59c3.59,0,6.5-2.91,6.5-6.5s-2.91-6.5-6.5-6.5H80.995l-9.568-26.315h185.925L240.17,85.33H88.609z
	 M123.76,315.779h-18.07c-3.474,0-6.3-2.826-6.3-6.3c0-1.688,0.655-3.272,1.847-4.464c1.19-1.19,2.771-1.846,4.453-1.846h18.07
	V315.779z M136.76,315.55v-18.88v-25.601V245.46v-20.974l61.318-20.978l-0.819,16.019l-1.31,25.601l-1.31,25.609l-1.31,25.599
	l0,0.001l-0.984,19.213H136.76z M227.533,313.943c-1.179,1.184-2.757,1.836-4.443,1.836h-17.741l0.646-12.609h17.095
	c3.474,0,6.3,2.83,6.3,6.31C229.39,311.161,228.734,312.742,227.533,313.943z"/>
<g>
</g>
<g>
</g>
<g>
</g>
<g>
</g>
<g>
</g>
<g>
</g>
<g>
</g>
<g>
</g>
<g>
</g>
<g>
</g>
<g>
</g>
<g>
</g>
<g>
</g>
<g>
</g>
<g>
</g>
</svg>
