<?xml version="1.0" encoding="iso-8859-1"?>
<!-- Generator: Adobe Illustrator 17.1.0, SVG Export Plug-In . SVG Version: 6.00 Build 0)  -->
<!DOCTYPE svg PUBLIC "-//W3C//DTD SVG 1.1//EN" "http://www.w3.org/Graphics/SVG/1.1/DTD/svg11.dtd">
<svg version="1.1" id="Capa_1" xmlns="http://www.w3.org/2000/svg" xmlns:xlink="http://www.w3.org/1999/xlink" x="0px" y="0px"
	 viewBox="0 0 358.33 358.33" style="enable-background:new 0 0 358.33 358.33;" xml:space="preserve">
<path d="M308.352,71.665c-0.954-36.585-31.54-66.236-68.145-66.047l-0.859,0.004c-9.116,0.04-17.788,2.984-25.02,8.228
	C208.025,8.421,195.668,0,179.646,0c-16.693,0-29.264,8.434-35.628,13.861c-7.235-5.251-15.912-8.2-25.033-8.24l-0.863-0.004
	c-0.103,0-0.203,0-0.306,0c-36.485,0-66.888,29.566-67.839,66.047c-0.196,7.512,0.828,14.924,3.059,22.075l23.635,73.875
	c0.366,21.64,13.585,76.679,17.685,93.258c4.124,16.674,18.083,71.633,24.567,78.805c2.781,3.075,6.417,4.701,10.241,4.701
	c1.505,0,3.04-0.252,4.563-0.767c6.816-2.301,12.414-9.449,13.019-16.628c0.61-7.238,0.275-16.277-0.112-26.743
	c-0.361-9.748-0.754-20.384-0.384-30.643c2.036,6.315,4.072,13.471,5.64,20.834c1.313,6.167,2.492,12.558,3.632,18.738
	c5.065,27.466,9.067,49.16,23.642,49.16s18.576-21.694,23.642-49.16c1.14-6.181,2.318-12.571,3.632-18.738
	c1.568-7.364,3.604-14.52,5.64-20.834c0.37,10.259-0.023,20.895-0.384,30.643c-0.388,10.466-0.723,19.505-0.112,26.743
	c0.604,7.179,6.202,14.327,13.019,16.628c5.391,1.821,10.928,0.351,14.805-3.935c6.484-7.171,20.443-62.131,24.567-78.805
	c4.1-16.578,17.319-71.618,17.686-93.257l23.649-73.921C307.523,86.589,308.548,79.177,308.352,71.665z M179.646,13
	c11.219,0,20.356,5.902,25.343,9.995c-0.894,1.172-1.753,2.381-2.544,3.654c-5.039,8.116-13.742,12.962-23.28,12.962
	s-18.241-4.846-23.28-12.962c-0.785-1.265-1.639-2.465-2.526-3.63C158.427,18.92,167.797,13,179.646,13z M193.724,287.724
	c-1.351,6.341-2.546,12.821-3.701,19.088c-1.897,10.286-3.689,20.001-5.857,27.435c-2.383,8.171-4.34,10.404-5,10.959
	c-0.66-0.556-2.617-2.789-5-10.959c-2.168-7.434-3.96-17.149-5.857-27.435c-1.155-6.267-2.351-12.747-3.701-19.087
	c-4.583-21.528-12.675-40.815-14.57-45.176c1.868-6.21,4.558-11.569,8.401-15.557c5.021-5.21,11.801-7.742,20.728-7.742
	s15.707,2.532,20.728,7.742c3.843,3.988,6.533,9.347,8.401,15.557C206.398,246.909,198.307,266.196,193.724,287.724z
	 M292.912,89.778l-23.937,74.816c-0.001,0.003-0.001,0.007-0.002,0.01c-0.091,0.288-0.159,0.584-0.21,0.888
	c-0.01,0.06-0.018,0.12-0.027,0.18c-0.04,0.284-0.066,0.573-0.068,0.868c0,0.012-0.003,0.023-0.003,0.035v0.023
	c0.102,29.411-32.263,154.226-39.021,164.487c-0.367,0.385-0.464,0.351-0.886,0.209c-1.885-0.636-4.056-3.414-4.224-5.403
	c-0.544-6.453-0.207-15.545,0.15-25.17c1.061-28.631,2.381-64.265-15.432-82.75c-7.495-7.778-17.618-11.722-30.089-11.722
	s-22.594,3.944-30.089,11.722c-17.813,18.485-16.492,54.119-15.432,82.75c0.357,9.625,0.694,18.717,0.15,25.17
	c-0.168,1.989-2.339,4.767-4.224,5.403c-0.424,0.144-0.52,0.174-0.886-0.209c-6.192-9.399-33.866-114.919-38.391-155.177
	c15.656,4.961,49.039,13.76,88.87,13.76c20.722,0,42.297-2.446,64.126-7.27c3.506-0.775,5.719-4.244,4.944-7.75
	c-0.774-3.505-4.247-5.72-7.749-4.944c-1.881,0.416-3.756,0.791-5.632,1.17l10.775-27.341c1.316-3.34-0.324-7.114-3.664-8.43
	c-3.34-1.316-7.113,0.324-8.43,3.664l-13.694,34.75c-13.824,2.078-27.443,3.151-40.676,3.151c-14.908,0-28.963-1.33-41.433-3.224
	l-13.667-34.678c-1.316-3.34-5.091-4.98-8.43-3.664c-3.34,1.316-4.98,5.091-3.664,8.431l10.735,27.239
	c-16.736-3.412-29.048-7.382-34.326-9.22L65.433,89.824c-1.79-5.741-2.617-11.736-2.458-17.82
	c0.769-29.49,25.344-53.387,54.843-53.387c0.081,0,0.166,0,0.247,0l0.861,0.004c10.468,0.046,20.155,5.611,25.914,14.885
	c7.428,11.963,20.26,19.104,34.325,19.104s26.897-7.142,34.325-19.104c1.433-2.308,3.11-4.385,4.98-6.206
	c0.022-0.021,0.044-0.042,0.066-0.063c5.64-5.457,13.036-8.583,20.871-8.617l0.857-0.004c0.083,0,0.165,0,0.248,0
	c29.495,0,54.073,23.898,54.842,53.387C295.515,78.087,294.688,84.083,292.912,89.778z"/>
<g>
</g>
<g>
</g>
<g>
</g>
<g>
</g>
<g>
</g>
<g>
</g>
<g>
</g>
<g>
</g>
<g>
</g>
<g>
</g>
<g>
</g>
<g>
</g>
<g>
</g>
<g>
</g>
<g>
</g>
</svg>
