<?xml version="1.0" encoding="iso-8859-1"?>
<!-- Generator: Adobe Illustrator 17.1.0, SVG Export Plug-In . SVG Version: 6.00 Build 0)  -->
<!DOCTYPE svg PUBLIC "-//W3C//DTD SVG 1.1//EN" "http://www.w3.org/Graphics/SVG/1.1/DTD/svg11.dtd">
<svg version="1.1" id="Capa_1" xmlns="http://www.w3.org/2000/svg" xmlns:xlink="http://www.w3.org/1999/xlink" x="0px" y="0px"
	 viewBox="0 0 357.183 357.183" style="enable-background:new 0 0 357.183 357.183;" xml:space="preserve">
<path d="M312.731,68.459L312.731,68.459C311.745,30.643,280.235,0,242.417,0c-0.104,0-0.213,0-0.317,0l-0.896,0.004
	c-15.485,0.068-29.754,8.2-38.169,21.753c-5.291,8.521-14.429,13.608-24.444,13.608s-19.153-5.087-24.444-13.608
	c-8.415-13.553-22.684-21.685-38.172-21.753L115.084,0c-0.106,0-0.211,0-0.317,0C76.951,0,45.437,30.645,44.452,68.459
	c-0.203,7.788,0.858,15.47,3.169,22.878l24.593,76.869c0.042,30.246,6.468,76.155,20.629,106.721l31.642,68.298
	c2.873,8.287,10.473,13.876,19.042,13.955c0.064,0.001,0.129,0.001,0.193,0.001c5.37,0,10.42-2.077,14.239-5.86
	c3.865-3.829,5.994-8.935,5.994-14.375c0-0.603-0.084-1.203-0.249-1.783c-6.233-21.855-18.756-83.417-2.073-105.523
	c4.016-5.321,9.564-7.908,16.961-7.908c7.207,0,12.632,2.532,16.586,7.741c16.631,21.912,4.425,83.471-1.682,105.342
	c-0.159,0.569-0.24,1.159-0.24,1.75c0,10.488,8.325,19.706,18.559,20.548c0.569,0.047,1.135,0.07,1.697,0.07
	c8.589,0,16.241-5.384,19.09-13.583l31.791-68.723c14.128-30.54,20.538-76.417,20.576-106.672l24.607-76.913
	C311.873,83.929,312.934,76.247,312.731,68.459z M297.18,87.376l-24.903,77.838c-0.207,0.647-0.312,1.388-0.309,2.068
	c0.101,28.804-5.919,73.052-19.374,102.137l-31.938,69.042c-0.108,0.234-0.203,0.475-0.283,0.721
	c-1.042,3.206-4.126,5.247-7.492,4.975c-3.239-0.267-6.208-3.443-6.585-6.867c2.737-10.162,22.013-85.658-0.759-115.671
	c-6.488-8.551-15.554-12.887-26.945-12.887c-11.591,0-20.789,4.4-27.338,13.077c-22.808,30.222-3.139,105.704-0.34,115.89
	c-0.17,1.66-0.902,3.197-2.104,4.388c-1.381,1.368-3.246,2.104-5.162,2.095c-3.064-0.028-5.915-2.238-6.933-5.374
	c-0.08-0.247-0.175-0.489-0.284-0.725l-31.791-68.621c-12.129-26.18-18.228-64.625-19.263-93.075
	c15.893,5.1,51.079,14.57,93.215,14.57c21.54,0,43.967-2.542,66.659-7.557c3.505-0.775,5.719-4.244,4.944-7.75
	c-0.774-3.505-4.245-5.717-7.749-4.944c-2.118,0.468-4.232,0.907-6.344,1.33l11.393-28.91c1.316-3.34-0.324-7.114-3.664-8.431
	c-3.344-1.317-7.115,0.324-8.431,3.664l-14.311,36.315c-14.444,2.178-28.671,3.283-42.497,3.283
	c-15.583,0-30.272-1.395-43.294-3.379l-14.273-36.218c-1.316-3.339-5.089-4.98-8.431-3.664c-3.34,1.316-4.98,5.091-3.664,8.431
	l11.346,28.79c-17.799-3.601-30.862-7.829-36.342-9.742L60.017,87.421c-1.871-5.999-2.735-12.265-2.57-18.624
	C58.253,37.891,84.096,12.815,115.027,13l0.894,0.004c10.982,0.048,21.144,5.884,27.183,15.611
	c7.679,12.367,20.946,19.751,35.488,19.751s27.809-7.384,35.488-19.751c6.039-9.727,16.201-15.563,27.179-15.611L242.157,13
	c0.087,0,0.172,0,0.259,0c30.827,0,56.515,24.978,57.319,55.797v0C299.901,75.157,299.037,81.423,297.18,87.376z"/>
<g>
</g>
<g>
</g>
<g>
</g>
<g>
</g>
<g>
</g>
<g>
</g>
<g>
</g>
<g>
</g>
<g>
</g>
<g>
</g>
<g>
</g>
<g>
</g>
<g>
</g>
<g>
</g>
<g>
</g>
</svg>
