<?xml version="1.0" encoding="iso-8859-1"?>
<!-- Generator: Adobe Illustrator 17.1.0, SVG Export Plug-In . SVG Version: 6.00 Build 0)  -->
<!DOCTYPE svg PUBLIC "-//W3C//DTD SVG 1.1//EN" "http://www.w3.org/Graphics/SVG/1.1/DTD/svg11.dtd">
<svg version="1.1" id="Capa_1" xmlns="http://www.w3.org/2000/svg" xmlns:xlink="http://www.w3.org/1999/xlink" x="0px" y="0px"
	 viewBox="0 0 368.477 368.477" style="enable-background:new 0 0 368.477 368.477;" xml:space="preserve">
<path d="M273.106,8.768C271.885,8.41,242.528,0,184.239,0S96.591,8.41,95.37,8.768c-2.769,0.812-4.671,3.352-4.671,6.237v72.537
	c0,28.018,12.386,53.195,31.966,70.353c0.48,27.934,8.605,77.12,20.522,123.856c6.025,23.629,12.326,43.834,18.22,58.43
	c8.01,19.833,14.742,28.295,22.511,28.295c7.808,0,14.598-8.466,22.704-28.308c5.976-14.627,12.362-34.87,18.47-58.54
	c12.019-46.582,20.234-95.616,20.807-123.75c20.297-17.793,31.881-43.253,31.881-70.337V15.005
	C277.778,12.12,275.876,9.579,273.106,8.768z M264.778,87.542c0,24.096-10.649,46.701-29.223,62.073
	c-1.589,1.185-2.622,3.073-2.622,5.208c0,25.334-7.726,73.085-19.224,118.823c-5.636,22.42-11.591,42.059-17.222,56.793
	c-6.544,17.123-10.798,22.717-12.545,24.458c-1.733-1.76-5.941-7.386-12.394-24.488c-5.552-14.716-11.423-34.318-16.978-56.688
	c-9.672-38.955-16.629-79.336-18.453-105.996c14.068,8.475,30.534,13.356,48.12,13.356c10.694,0,21.185-1.792,31.181-5.325
	c3.385-1.196,5.159-4.91,3.962-8.295c-1.195-3.385-4.912-5.158-8.294-3.962c-6.568,2.321-13.389,3.762-20.35,4.317v-36.756
	c0-3.59-2.909-6.5-6.499-6.5c-3.59,0-6.5,2.91-6.5,6.5v36.736c-41.379-3.324-74.04-38.035-74.04-80.254V20.101
	C113.899,17.837,140.785,13,184.239,13c43.289,0,70.301,4.848,80.54,7.108V87.542z"/>
<g>
</g>
<g>
</g>
<g>
</g>
<g>
</g>
<g>
</g>
<g>
</g>
<g>
</g>
<g>
</g>
<g>
</g>
<g>
</g>
<g>
</g>
<g>
</g>
<g>
</g>
<g>
</g>
<g>
</g>
</svg>
