<?xml version="1.0" encoding="iso-8859-1"?>
<!-- Generator: Adobe Illustrator 17.1.0, SVG Export Plug-In . SVG Version: 6.00 Build 0)  -->
<!DOCTYPE svg PUBLIC "-//W3C//DTD SVG 1.1//EN" "http://www.w3.org/Graphics/SVG/1.1/DTD/svg11.dtd">
<svg version="1.1" id="Capa_1" xmlns="http://www.w3.org/2000/svg" xmlns:xlink="http://www.w3.org/1999/xlink" x="0px" y="0px"
	 viewBox="0 0 363.967 363.967" style="enable-background:new 0 0 363.967 363.967;" xml:space="preserve">
<path d="M280.549,43.6c-0.053-8.001-2.076-13.771-6.181-17.633c-6.229-5.86-15.167-5.314-23.055-4.832
	c-5.745,0.352-11.688,0.715-15.302-1.382c-2.265-1.314-4.416-2.595-6.49-3.83C214.579,7.026,202.776,0,182.022,0
	c-18.302,0-29.169,6.059-41.752,13.073c-3.748,2.089-7.623,4.25-11.95,6.388c-3.34,1.65-9.006,1.339-14.484,1.037
	c-8.38-0.461-17.874-0.983-24.417,5.21c-4.232,4.006-6.307,9.906-6.337,18.031c-0.243,4.728-2.821,68.631,32.745,106.273
	c1.468,1.553,2.995,3.015,4.549,4.433v9.338c0,27.473,8.077,74.596,20.577,120.051c6.004,21.833,12.32,40.521,18.266,54.042
	c8.041,18.287,14.75,26.09,22.434,26.09c7.724,0,14.49-7.806,22.626-26.101c6.027-13.553,12.431-32.279,18.517-54.153
	c12.68-45.573,20.873-92.852,20.873-120.448v-9.007C286.192,116.622,281.098,49.584,280.549,43.6z M211.412,276.074
	c-13.148,48.479-24.82,70.839-29.736,74.575c-4.867-3.789-16.392-26.168-29.342-74.511c-11.461-42.782-18.883-86.657-18.955-111.978
	c13.712,8.216,29.92,12.372,48.437,12.372c9.551,0,18.667-1.168,27.097-3.474c3.462-0.946,5.502-4.521,4.555-7.984
	c-0.946-3.462-4.52-5.503-7.984-4.555c-5.396,1.476-11.15,2.41-17.167,2.801v-36.264c0-3.59-2.91-6.5-6.5-6.5s-6.5,2.91-6.5,6.5
	v36.252c-17.467-1.099-32.272-6.682-44.157-16.679c-0.119-0.105-0.243-0.205-0.369-0.3c-1.902-1.623-3.73-3.358-5.48-5.208
	c-32.315-34.155-29.273-96.214-29.239-96.833c0.007-0.123,0.011-0.245,0.011-0.368c0-3.02,0.395-6.992,2.273-8.771
	c2.48-2.347,8.726-2.003,14.766-1.671c7.156,0.394,14.555,0.801,20.957-2.362c4.617-2.281,8.636-4.521,12.522-6.688
	C158.501,17.793,167.099,13,182.022,13c17.177,0,26.595,5.606,40.85,14.093c2.113,1.259,4.307,2.564,6.614,3.903
	c7.01,4.068,15.303,3.562,22.62,3.115c5.517-0.336,11.218-0.685,13.354,1.324c1.348,1.268,2.09,4.281,2.09,8.485
	c0,0.217,0.011,0.435,0.032,0.65c0.068,0.677,6.333,68.073-34.658,101.777c-1.904,1.565-2.689,3.987-2.256,6.249v10.668
	C230.668,188.662,223.109,232.942,211.412,276.074z"/>
<g>
</g>
<g>
</g>
<g>
</g>
<g>
</g>
<g>
</g>
<g>
</g>
<g>
</g>
<g>
</g>
<g>
</g>
<g>
</g>
<g>
</g>
<g>
</g>
<g>
</g>
<g>
</g>
<g>
</g>
</svg>
